<?xml version="1.0" standalone="no"?><!DOCTYPE svg PUBLIC "-//W3C//DTD SVG 1.1//EN" "http://www.w3.org/Graphics/SVG/1.1/DTD/svg11.dtd"><svg xmlns:xlink="http://www.w3.org/1999/xlink" version="1.1" style="font-family:dosis, sans-serif;font-size:12px;" xmlns="http://www.w3.org/2000/svg" width="600" height="400"><desc>Created with Highcharts 4.2.7</desc><defs><clipPath id="highcharts-111"><rect x="0" y="0" width="580" height="336"></rect></clipPath></defs><rect x="10" y="10" width="580" height="336" fill="rgb(255, 255, 255)" fill-opacity=" .9"></rect><g class="highcharts-series-group"><g class="highcharts-series highcharts-series-0" transform="translate(10,10) scale(1 1)"><path fill="#fff807" d="M 289.96781963381613 10.000003277139172 A 158 158 0 1 1 135.8916556998818 133.1486267548003 L 290 168 A 0 0 0 1 0 290 168 Z" stroke="#FFFFFF" stroke-width="1" stroke-linejoin="round" transform="translate(0,0)"></path><path fill="#000000" d="M 135.92658412148415 132.99453586187008 A 158 158 0 0 1 289.78054116978467 10.000152412029706 L 290 168 A 0 0 0 0 0 290 168 Z" stroke="#FFFFFF" stroke-width="1" stroke-linejoin="round" transform="translate(0,0)"></path></g><g class="highcharts-markers highcharts-series-0" transform="translate(10,10) scale(1 1)"></g></g><g class="highcharts-data-labels highcharts-series-0" transform="translate(10,10) scale(1 1)" opacity="1"><path fill="none" d="M 412.28482074051345 314.9294756809049 C 407.28482074051345 314.9294756809049 402.29397730474693 308.67715756682384 395.43156758056796 300.0802201599624 L 388.569157856389 291.4832827531009" stroke="#fff807" stroke-width="1"></path><path fill="none" d="M 167.71517925948655 21.070524319095107 C 172.71517925948655 21.070524319095107 177.70602269525307 27.322842433176163 184.56843241943204 35.91977984003762 L 191.43084214361102 44.51671724689908" stroke="#000000" stroke-width="1"></path><g style="cursor:pointer;" transform="translate(417,305)"><text x="5" style="font-size:10px;font-weight:bold;font-family:'arial', sans-serif;color:#333;text-shadow:none;fill:#333;text-rendering:geometricprecision;" y="15"><tspan>Day: 3015</tspan></text></g><g style="cursor:pointer;" transform="translate(104,11)"><text x="5" style="font-size:10px;font-weight:bold;font-family:'arial', sans-serif;color:#333;text-shadow:none;fill:#333;text-rendering:geometricprecision;" y="15"><tspan>Night: 823</tspan></text></g></g><g class="highcharts-legend" transform="translate(237,358)"><g><g><g class="highcharts-legend-item" transform="translate(8,3)"><text x="21" style="color:#333;font-size:13px;font-weight:bold;cursor:pointer;font-family:dosis, sans-serif;text-transform:none;fill:#333;" text-anchor="start" y="16">Day</text><rect x="0" y="4" width="16" height="13" fill="#fff807"></rect></g><g class="highcharts-legend-item" transform="translate(69.3125,3)"><text x="21" y="16" style="color:#333;font-size:13px;font-weight:bold;cursor:pointer;font-family:dosis, sans-serif;text-transform:none;fill:#333;" text-anchor="start">Night</text><rect x="0" y="4" width="16" height="13" fill="#000000"></rect></g></g></g></g><g class="highcharts-tooltip" display="none" style="cursor:default;padding:0;pointer-events:none;white-space:nowrap;" transform="translate(0,0)"><path fill="rgb(219,219,216)" fill-opacity="0.8" d="M 3 0 L 13 0 C 16 0 16 0 16 3 L 16 13 C 16 16 16 16 13 16 L 3 16 C 0 16 0 16 0 13 L 0 3 C 0 0 0 0 3 0"></path><text x="8" style="font-size:12px;color:#333;fill:#333;" y="20"></text></g><text x="590" text-anchor="end" style="cursor:pointer;color:#666;font-size:9px;fill:#666;" y="395">meta-chart.com</text></svg>